<svg width="19" height="19" viewBox="0 0 19 19" fill="none" xmlns="http://www.w3.org/2000/svg">
<path d="M12.7813 8.1875V4.25C12.7813 3.37976 12.4356 2.54516 11.8203 1.92981C11.2049 1.31445 10.3703 0.96875 9.50008 0.96875C8.62984 0.96875 7.79524 1.31445 7.17988 1.92981C6.56453 2.54516 6.21883 3.37976 6.21883 4.25V8.1875M16.1553 6.44362L17.2605 16.9436C17.3217 17.5255 16.8667 18.0312 16.2813 18.0312H2.71883C2.58076 18.0314 2.44421 18.0025 2.31803 17.9464C2.19186 17.8904 2.0789 17.8084 1.98647 17.7058C1.89405 17.6032 1.82424 17.4824 1.78158 17.3511C1.73891 17.2197 1.72435 17.0809 1.73883 16.9436L2.84483 6.44362C2.87034 6.20174 2.9845 5.97786 3.1653 5.81516C3.34609 5.65246 3.58073 5.56246 3.82395 5.5625H15.1762C15.6802 5.5625 16.1028 5.94312 16.1553 6.44362ZM6.54695 8.1875C6.54695 8.27452 6.51238 8.35798 6.45085 8.41952C6.38931 8.48106 6.30585 8.51562 6.21883 8.51562C6.1318 8.51562 6.04834 8.48106 5.98681 8.41952C5.92527 8.35798 5.8907 8.27452 5.8907 8.1875C5.8907 8.10048 5.92527 8.01702 5.98681 7.95548C6.04834 7.89394 6.1318 7.85938 6.21883 7.85938C6.30585 7.85938 6.38931 7.89394 6.45085 7.95548C6.51238 8.01702 6.54695 8.10048 6.54695 8.1875ZM13.1095 8.1875C13.1095 8.27452 13.0749 8.35798 13.0133 8.41952C12.9518 8.48106 12.8684 8.51562 12.7813 8.51562C12.6943 8.51562 12.6108 8.48106 12.5493 8.41952C12.4878 8.35798 12.4532 8.27452 12.4532 8.1875C12.4532 8.10048 12.4878 8.01702 12.5493 7.95548C12.6108 7.89394 12.6943 7.85938 12.7813 7.85938C12.8684 7.85938 12.9518 7.89394 13.0133 7.95548C13.0749 8.01702 13.1095 8.10048 13.1095 8.1875Z" stroke="white" stroke-width="1.5" stroke-linecap="round" stroke-linejoin="round"/>
</svg>
